<svg width="38" height="38" viewBox="0 0 38 38" fill="none" xmlns="http://www.w3.org/2000/svg">
<mask id="path-1-inside-1_0_944" fill="white">
<path fill-rule="evenodd" clip-rule="evenodd" d="M26.7408 26.7407L26.7408 0L38 11.2593V38H38H11.2593L0 26.7407L26.7408 26.7407Z"/>
</mask>
<path fill-rule="evenodd" clip-rule="evenodd" d="M26.7408 26.7407L26.7408 0L38 11.2593V38H38H11.2593L0 26.7407L26.7408 26.7407Z" fill="url(#paint0_linear_0_944)"/>
<path d="M26.7408 0L27.4479 -0.707108L25.7408 -2.41422V0H26.7408ZM26.7408 26.7407V27.7407H27.7408V26.7407H26.7408ZM38 11.2593H39V10.845L38.7071 10.5522L38 11.2593ZM38 38V39H39V38H38ZM11.2593 38L10.5522 38.7071L10.845 39H11.2593V38ZM0 26.7407V25.7407H-2.41422L-0.707108 27.4478L0 26.7407ZM25.7408 0L25.7408 26.7407H27.7408L27.7408 0H25.7408ZM38.7071 10.5522L27.4479 -0.707108L26.0336 0.707108L37.2929 11.9664L38.7071 10.5522ZM39 38V11.2593H37V38H39ZM38 39H38V37H38V39ZM38 37H11.2593V39H38V37ZM11.9664 37.2929L0.707108 26.0336L-0.707108 27.4478L10.5522 38.7071L11.9664 37.2929ZM0 27.7407L26.7408 27.7407V25.7407L0 25.7407V27.7407Z" fill="black" mask="url(#path-1-inside-1_0_944)"/>
<mask id="path-3-inside-2_0_944" fill="white">
<path fill-rule="evenodd" clip-rule="evenodd" d="M11.2592 11.2593V38L-1.14441e-05 26.7407V0H0H26.7407L38 11.2593L11.2592 11.2593Z"/>
</mask>
<path fill-rule="evenodd" clip-rule="evenodd" d="M11.2592 11.2593V38L-1.14441e-05 26.7407V0H0H26.7407L38 11.2593L11.2592 11.2593Z" fill="url(#paint1_linear_0_944)"/>
<path d="M11.2592 38L10.5521 38.7071L12.2592 40.4142V38H11.2592ZM11.2592 11.2593V10.2593H10.2592V11.2593H11.2592ZM-1.14441e-05 26.7407H-1.00001V27.155L-0.707118 27.4478L-1.14441e-05 26.7407ZM-1.14441e-05 0V-1H-1.00001V0H-1.14441e-05ZM26.7407 0L27.4478 -0.707107L27.155 -1H26.7407V0ZM38 11.2593V12.2593H40.4142L38.7071 10.5522L38 11.2593ZM12.2592 38V11.2593H10.2592V38H12.2592ZM-0.707118 27.4478L10.5521 38.7071L11.9664 37.2929L0.707095 26.0336L-0.707118 27.4478ZM-1.00001 0V26.7407H0.999989V0H-1.00001ZM0 -1H-1.14441e-05V1H0V-1ZM0 1H26.7407V-1H0V1ZM26.0336 0.707107L37.2929 11.9664L38.7071 10.5522L27.4478 -0.707107L26.0336 0.707107ZM38 10.2593L11.2592 10.2593V12.2593L38 12.2593V10.2593Z" fill="black" mask="url(#path-3-inside-2_0_944)"/>
<defs>
<linearGradient id="paint0_linear_0_944" x1="19" y1="38" x2="19" y2="0" gradientUnits="userSpaceOnUse">
<stop stop-opacity="0.61"/>
<stop offset="1" stop-color="white"/>
</linearGradient>
<linearGradient id="paint1_linear_0_944" x1="26.7407" y1="-2.94654e-07" x2="11.2593" y2="38" gradientUnits="userSpaceOnUse">
<stop stop-color="#FF00D6"/>
<stop offset="1" stop-color="#FF4D00"/>
</linearGradient>
</defs>
</svg>
